<mxfile host="www.draw.io" modified="2019-10-28T08:40:03.033Z" agent="Mozilla/5.0 (Windows NT 10.0; Win64; x64) AppleWebKit/537.36 (KHTML, like Gecko) Chrome/77.0.3865.120 Safari/537.36" etag="3fvRmHfWDasGpB6vOyyw" version="12.1.7" type="github" pages="1">
  <diagram id="FDK_VWUMmiSy1B3tPCUl" name="Page-1">
    <mxGraphModel dx="1116" dy="529" grid="1" gridSize="10" guides="1" tooltips="1" connect="1" arrows="1" fold="1" page="1" pageScale="1" pageWidth="827" pageHeight="1169" math="0" shadow="0">
      <root>
        <mxCell id="0"/>
        <mxCell id="1" parent="0"/>
        <mxCell id="LWGLGFLKwShI6pi8NE8C-1" value="User" style="rounded=0;whiteSpace=wrap;html=1;" vertex="1" parent="1">
          <mxGeometry x="240" width="120" height="60" as="geometry"/>
        </mxCell>
        <mxCell id="LWGLGFLKwShI6pi8NE8C-2" value="Database" style="rounded=0;whiteSpace=wrap;html=1;" vertex="1" parent="1">
          <mxGeometry x="490" y="230" width="120" height="60" as="geometry"/>
        </mxCell>
        <mxCell id="LWGLGFLKwShI6pi8NE8C-3" style="edgeStyle=orthogonalEdgeStyle;rounded=0;orthogonalLoop=1;jettySize=auto;html=1;exitX=0.5;exitY=1;exitDx=0;exitDy=0;entryX=0.154;entryY=0.998;entryDx=0;entryDy=0;entryPerimeter=0;" edge="1" parent="1" source="LWGLGFLKwShI6pi8NE8C-4" target="LWGLGFLKwShI6pi8NE8C-4">
          <mxGeometry relative="1" as="geometry">
            <mxPoint x="60" y="300" as="targetPoint"/>
          </mxGeometry>
        </mxCell>
        <mxCell id="LWGLGFLKwShI6pi8NE8C-4" value="System" style="rounded=0;whiteSpace=wrap;html=1;" vertex="1" parent="1">
          <mxGeometry x="40" y="230" width="120" height="60" as="geometry"/>
        </mxCell>
        <mxCell id="LWGLGFLKwShI6pi8NE8C-5" value="" style="endArrow=none;html=1;entryX=0.25;entryY=1;entryDx=0;entryDy=0;exitX=0.5;exitY=0;exitDx=0;exitDy=0;" edge="1" parent="1" source="LWGLGFLKwShI6pi8NE8C-4" target="LWGLGFLKwShI6pi8NE8C-1">
          <mxGeometry width="50" height="50" relative="1" as="geometry">
            <mxPoint x="140" y="180" as="sourcePoint"/>
            <mxPoint x="190" y="130" as="targetPoint"/>
          </mxGeometry>
        </mxCell>
        <mxCell id="LWGLGFLKwShI6pi8NE8C-6" value="" style="endArrow=none;html=1;entryX=0;entryY=0.5;entryDx=0;entryDy=0;exitX=1;exitY=0.5;exitDx=0;exitDy=0;" edge="1" parent="1" source="LWGLGFLKwShI6pi8NE8C-4" target="LWGLGFLKwShI6pi8NE8C-2">
          <mxGeometry width="50" height="50" relative="1" as="geometry">
            <mxPoint x="200" y="300" as="sourcePoint"/>
            <mxPoint x="250" y="250" as="targetPoint"/>
          </mxGeometry>
        </mxCell>
        <mxCell id="LWGLGFLKwShI6pi8NE8C-7" value="" style="endArrow=classic;html=1;" edge="1" parent="1">
          <mxGeometry width="50" height="50" relative="1" as="geometry">
            <mxPoint x="135" y="180" as="sourcePoint"/>
            <mxPoint x="185" y="130" as="targetPoint"/>
          </mxGeometry>
        </mxCell>
        <mxCell id="LWGLGFLKwShI6pi8NE8C-8" value="" style="endArrow=classic;html=1;" edge="1" parent="1">
          <mxGeometry width="50" height="50" relative="1" as="geometry">
            <mxPoint x="250" y="100" as="sourcePoint"/>
            <mxPoint x="210" y="140" as="targetPoint"/>
          </mxGeometry>
        </mxCell>
        <mxCell id="LWGLGFLKwShI6pi8NE8C-9" value="" style="endArrow=classic;html=1;" edge="1" parent="1">
          <mxGeometry width="50" height="50" relative="1" as="geometry">
            <mxPoint x="270" y="280" as="sourcePoint"/>
            <mxPoint x="360" y="280" as="targetPoint"/>
          </mxGeometry>
        </mxCell>
        <mxCell id="LWGLGFLKwShI6pi8NE8C-10" value="" style="endArrow=classic;html=1;" edge="1" parent="1">
          <mxGeometry width="50" height="50" relative="1" as="geometry">
            <mxPoint x="360" y="250" as="sourcePoint"/>
            <mxPoint x="260" y="250" as="targetPoint"/>
          </mxGeometry>
        </mxCell>
        <mxCell id="LWGLGFLKwShI6pi8NE8C-11" value="1: Login" style="text;html=1;resizable=0;points=[];autosize=1;align=left;verticalAlign=top;spacingTop=-4;" vertex="1" parent="1">
          <mxGeometry x="240" y="109" width="60" height="20" as="geometry"/>
        </mxCell>
        <mxCell id="LWGLGFLKwShI6pi8NE8C-12" value="2 : Check user credential" style="text;html=1;resizable=0;points=[];autosize=1;align=left;verticalAlign=top;spacingTop=-4;" vertex="1" parent="1">
          <mxGeometry x="240" y="284" width="150" height="20" as="geometry"/>
        </mxCell>
        <mxCell id="LWGLGFLKwShI6pi8NE8C-13" value="3: Valid User" style="text;html=1;" vertex="1" parent="1">
          <mxGeometry x="268" y="215" width="90" height="30" as="geometry"/>
        </mxCell>
        <mxCell id="LWGLGFLKwShI6pi8NE8C-14" value="4 :Ask for Image Capture" style="text;html=1;" vertex="1" parent="1">
          <mxGeometry x="10" y="129" width="160" height="30" as="geometry"/>
        </mxCell>
        <mxCell id="LWGLGFLKwShI6pi8NE8C-15" value="5 : Capture Image" style="text;html=1;" vertex="1" parent="1">
          <mxGeometry x="240" y="119" width="120" height="30" as="geometry"/>
        </mxCell>
        <mxCell id="LWGLGFLKwShI6pi8NE8C-16" value="6 : Check Images matches" style="text;html=1;" vertex="1" parent="1">
          <mxGeometry x="240" y="299" width="170" height="30" as="geometry"/>
        </mxCell>
        <mxCell id="LWGLGFLKwShI6pi8NE8C-17" value="7 : Matched" style="text;html=1;" vertex="1" parent="1">
          <mxGeometry x="270" y="200" width="90" height="30" as="geometry"/>
        </mxCell>
        <mxCell id="LWGLGFLKwShI6pi8NE8C-18" value="8 : If user verified" style="text;html=1;" vertex="1" parent="1">
          <mxGeometry x="268" y="185" width="120" height="30" as="geometry"/>
        </mxCell>
        <mxCell id="LWGLGFLKwShI6pi8NE8C-19" value="9 : Display candidates" style="text;html=1;" vertex="1" parent="1">
          <mxGeometry x="10" y="149" width="140" height="30" as="geometry"/>
        </mxCell>
        <mxCell id="LWGLGFLKwShI6pi8NE8C-20" value="10 : Select and cast a vote" style="text;html=1;" vertex="1" parent="1">
          <mxGeometry x="230" y="134" width="170" height="30" as="geometry"/>
        </mxCell>
        <mxCell id="LWGLGFLKwShI6pi8NE8C-21" value="11 : Commit, encrypt and store the vote" style="text;html=1;" vertex="1" parent="1">
          <mxGeometry y="309" width="140" height="30" as="geometry"/>
        </mxCell>
        <mxCell id="LWGLGFLKwShI6pi8NE8C-22" value="13 : Change User status" style="text;html=1;resizable=0;points=[];autosize=1;align=left;verticalAlign=top;spacingTop=-4;" vertex="1" parent="1">
          <mxGeometry x="255" y="333" width="140" height="20" as="geometry"/>
        </mxCell>
        <mxCell id="LWGLGFLKwShI6pi8NE8C-23" value="14 : Logout" style="text;html=1;" vertex="1" parent="1">
          <mxGeometry x="245" y="161" width="90" height="35" as="geometry"/>
        </mxCell>
        <mxCell id="LWGLGFLKwShI6pi8NE8C-24" value="12 : Voting Successfull" style="text;html=1;" vertex="1" parent="1">
          <mxGeometry x="20" y="181.5" width="150" height="30" as="geometry"/>
        </mxCell>
      </root>
    </mxGraphModel>
  </diagram>
</mxfile>
